<svg width="632" height="580" viewBox="0 0 632 580" fill="none" xmlns="http://www.w3.org/2000/svg">
<path d="M204.563 289.861C204.563 228.574 254.329 178.76 315.759 178.76C330.225 178.76 344.283 181.564 356.967 186.714L361.908 178.76L452.677 32.5297L468.926 6.52633L472.899 0H228.504L224.53 6.52633L213.63 23.9639L130.195 158.11L0 367.259H235.686C216.482 347.017 204.563 319.841 204.563 289.861Z" fill="white" fill-opacity="0.03"/>
<path d="M395.78 212.972C414.983 232.908 426.851 260.084 426.851 290.065C426.851 351.351 376.933 401.114 315.707 401.114C300.986 401.114 286.978 398.259 274.244 393.211L158.413 579.925H402.962C402.962 579.925 623.112 225.872 631.363 212.921H395.78V212.972Z" fill="white" fill-opacity="0.03"/>
</svg>
