<svg width="44" height="40" viewBox="0 0 44 40" fill="none" xmlns="http://www.w3.org/2000/svg">
<path d="M8.8667 16.7727L8.8667 39.9217H11.5691L11.5691 16.8006C11.2062 17.1133 10.726 17.3087 10.2179 17.3087C9.7098 17.3087 9.22963 17.1133 8.8667 16.7783V16.7727Z" fill="#FE3B1F"/>
<path d="M11.5186 13.5846V5.25406L8.91113 2.79175V13.6125C9.25172 13.2998 9.70957 13.1267 10.2177 13.1267C10.7258 13.1267 11.1613 13.2943 11.5242 13.5846H11.5186Z" fill="#FE3B1F"/>
<path d="M8.57621 13.9475L0.697933 17.0407L0 20.3238L8.74371 16.6778C8.35845 16.3149 8.1407 15.7845 8.1407 15.2038C8.1407 14.718 8.28587 14.2881 8.57621 13.9475Z" fill="#FE3B1F"/>
<path d="M18.0401 19.7935L21.2506 18.688L11.8313 13.9197C12.144 14.2603 12.3115 14.7181 12.3115 15.1983C12.3115 15.8013 12.0714 16.3317 11.6582 16.6947L18.0345 19.7879L18.0401 19.7935Z" fill="#FE3B1F"/>
<path d="M29.35 16.7586L29.3398 18.9919L32.1092 19.0045L32.1194 16.7711L29.35 16.7586Z" fill="#FE3B1F"/>
<path d="M29.35 3.47123e-05L29.3398 2.2334L32.1092 2.24597L32.1194 0.0126018L29.35 3.47123e-05Z" fill="#FE3B1F"/>
<path d="M21.2294 8.09928L21.2173 10.8687L23.4507 10.8784L23.4627 8.10902L21.2294 8.09928Z" fill="#FE3B1F"/>
<path d="M38.0082 8.10514L37.9961 10.8745L40.2295 10.8843L40.2415 8.11488L38.0082 8.10514Z" fill="#FE3B1F"/>
<path d="M24.6152 13.6552L23.0288 15.2273L24.9782 17.1944L26.5646 15.6224L24.6152 13.6552Z" fill="#FE3B1F"/>
<path d="M36.4834 1.78951L34.897 3.36157L36.8463 5.3287L38.4327 3.75664L36.4834 1.78951Z" fill="#FE3B1F"/>
<path d="M36.8579 13.6516L34.8911 15.6013L36.4635 17.1874L38.4302 15.2377L36.8579 13.6516Z" fill="#FE3B1F"/>
<path d="M24.9922 1.79151L23.0254 3.74121L24.5977 5.32733L26.5645 3.37763L24.9922 1.79151Z" fill="#FE3B1F"/>
<path d="M25.2255 11.6694C25.8117 13.1379 26.934 14.2937 28.3913 14.919C29.1451 15.2429 29.9379 15.4048 30.7308 15.4048C31.4734 15.4048 32.216 15.2652 32.9251 14.9804C34.3935 14.3942 35.5493 13.2719 36.1746 11.8146C36.8 10.3629 36.8223 8.74929 36.2361 7.28084C35.6498 5.81239 34.5275 4.65661 33.0702 4.03126C31.6185 3.40591 30.0049 3.38358 28.5365 3.96984C27.068 4.55611 25.9122 5.67838 25.2869 7.13567C24.6615 8.58737 24.6392 10.201 25.2255 11.6694ZM27.7324 8.18536C28.0786 7.38692 28.7151 6.76716 29.5247 6.44332C29.9156 6.28698 30.3232 6.20881 30.7308 6.20881C31.1663 6.20881 31.6074 6.29815 32.0205 6.47682C32.819 6.82299 33.4387 7.45951 33.7626 8.26911C34.0864 9.07871 34.0753 9.96649 33.7291 10.7649C33.3829 11.5634 32.7464 12.1831 31.9368 12.507C31.1272 12.8308 30.2394 12.8196 29.441 12.4735C28.6425 12.1273 28.0228 11.4908 27.6989 10.6812C27.3751 9.87157 27.3863 8.9838 27.7324 8.18536Z" fill="#FE3B1F"/>
<path d="M22.155 21.3398L11.7251 39.9998H27.4984L37.5821 21.3398H22.155ZM23.7072 23.992H26.8395L23.6626 29.7597H20.48L23.7072 23.992ZM19.4805 37.3532H16.2365L19.0339 32.3504V32.4119H22.1997L19.4805 37.3532ZM25.9183 37.3532H22.5012L25.2203 32.4119H28.5928L25.9183 37.3532ZM26.6832 29.7597L29.8602 23.992H33.1433L30.0221 29.7597H26.6832Z" fill="#FE3B1F"/>
<path d="M40.1783 21.541L30.625 39.9776L33.5787 40L43.104 21.5578L40.1783 21.541Z" fill="#FE3B1F"/>
</svg>
