<svg width="39" height="40" viewBox="0 0 39 40" fill="none" xmlns="http://www.w3.org/2000/svg">
<path d="M10.7123 0H0V11.097H10.7123V0ZM7.62184 8.00652H3.09046V3.09046H7.62184V8.00652Z" fill="#FE3B1F"/>
<path d="M28.0425 0V11.097H38.5722V0H28.0425ZM35.4818 8.00652H31.1329V3.09046H35.4818V8.00652Z" fill="#FE3B1F"/>
<path d="M24.8412 0H14.1289V11.097H24.8412V0ZM21.7507 8.00652H17.2194V3.09046H21.7507V8.00652Z" fill="#FE3B1F"/>
<path d="M10.7123 14.031H0V25.128H10.7123V14.031ZM7.62184 22.0375H3.09046V17.1215H7.62184V22.0375Z" fill="#FE3B1F"/>
<path d="M14.1289 17.8324C15.5698 16.737 17.3758 16.085 19.3318 16.085C21.4313 16.085 23.3481 16.8348 24.8412 18.0801V14.0312H14.1289V17.8324Z" fill="#FE3B1F"/>
<path d="M28.0425 25.1348H38.5722V14.0312H28.0425V25.1282V25.1348ZM31.1329 17.1282H35.4818V22.0443H31.1329V17.1282Z" fill="#FE3B1F"/>
<path d="M23.2306 29.4051C24.5802 28.2836 25.4409 26.595 25.4409 24.7042C25.4409 21.3334 22.7025 18.595 19.3317 18.595C15.9608 18.595 13.2225 21.3334 13.2225 24.7042C13.2225 26.595 14.0831 28.2836 15.4327 29.4051C11.1165 30.9959 8.01953 35.1426 8.01953 40H11.1165C11.1165 35.4686 14.8003 31.7849 19.3317 31.7849C23.863 31.7849 27.5468 35.4686 27.5468 40H30.6373C30.6373 35.1361 27.5468 30.9959 23.2306 29.4051ZM19.3317 21.6854C20.9943 21.6854 22.3504 23.0416 22.3504 24.7042C22.3504 26.3668 20.9943 27.7229 19.3317 27.7229C17.6691 27.7229 16.3129 26.3668 16.3129 24.7042C16.3129 23.0416 17.6691 21.6854 19.3317 21.6854Z" fill="#FE3B1F"/>
</svg>
