<svg width="40" height="40" viewBox="0 0 40 40" fill="none" xmlns="http://www.w3.org/2000/svg">
<path d="M20.2933 0C12.8958 0 6.87109 6.01799 6.87109 13.4222C6.87109 16.2746 7.76413 18.9204 9.29695 21.0996L12.1093 19.5935C10.8031 17.874 10.0367 15.7348 10.0367 13.4222C10.0367 7.76408 14.6352 3.15895 20.2933 3.15895C25.9514 3.15895 30.5499 7.76408 30.5499 13.4222C30.5499 15.8747 29.6835 18.1273 28.2373 19.8934H32.0427C33.1024 17.974 33.7088 15.7681 33.7088 13.4222C33.7088 6.01799 27.6908 0 20.2933 0Z" fill="#FE3B1F"/>
<path d="M22.5527 12.176L23.9856 12.1427L24.8853 10.1234L22.506 10.1567C22.4061 9.67018 22.2195 9.23033 21.9462 8.8238H24.1055L25.0052 6.82446H16.4681L15.5684 8.84379L17.4144 8.83046C17.9409 8.83046 18.3874 8.93709 18.754 9.15035C19.1205 9.36362 19.3871 9.75015 19.5537 10.15H16.4747L15.575 12.1693H19.6203C19.3138 13.1157 18.574 13.5822 17.3944 13.5822H16.4947L19.9736 18.9204H23.0792L20.4867 14.8951C20.4867 14.8951 20.9132 14.8351 21.4131 14.3686C22.0129 13.8088 22.3928 13.0624 22.5594 12.1627L22.5527 12.176Z" fill="#FE3B1F"/>
<path d="M6.67796 40.0003L4.86523 37.5211L11.5763 32.8427H25.5184L35.9082 19.9937H39.6803L27.2311 35.7951H12.576L6.67796 40.0003Z" fill="#FE3B1F"/>
<path d="M1.69277 33.0831L0 30.7506L11.1763 22.6133L29.95 22.48L23.9187 30.1641L13.1356 30.2507L15.2882 27.365L22.4992 27.2917L24.0387 25.4057L12.1226 25.4856L1.69277 33.0831Z" fill="#FE3B1F"/>
</svg>
