<svg width="47" height="42" viewBox="0 0 47 42" fill="none" xmlns="http://www.w3.org/2000/svg">
<path d="M39.7507 13.3024C40.8781 11.9998 41.5637 10.3011 41.5637 8.44239C41.5637 4.33651 38.2272 1 34.1213 1C30.0154 1 26.6865 4.33651 26.6865 8.44239C26.6865 10.3011 27.3645 11.9998 28.4995 13.3024C26.5647 14.2851 24.9269 15.7705 23.7538 17.5759C22.5807 15.7705 20.9429 14.2927 19.008 13.3024C20.143 11.9998 20.821 10.3011 20.821 8.44239C20.821 4.33651 17.4845 1 13.3786 1C9.27271 1 5.94382 4.33651 5.94382 8.44239C5.94382 10.3011 6.6294 11.9998 7.75681 13.3024C3.74995 15.3516 1 19.526 1 24.3251H4.984C4.984 19.6936 8.75471 15.9305 13.3786 15.9305C15.9305 15.9305 18.2234 17.0731 19.7698 18.8785C17.7206 20.204 16.3647 22.5045 16.3647 25.1249C16.3647 26.9836 17.0503 28.6823 18.1777 29.985C14.1708 32.0341 11.4209 36.2009 11.4209 41H15.4049C15.4049 36.3685 19.168 32.6054 23.7995 32.6054C28.431 32.6054 32.1941 36.3685 32.1941 41H36.1781C36.1781 36.1933 33.4205 32.0341 29.4136 29.985C30.5487 28.6823 31.2266 26.9836 31.2266 25.1249C31.2266 24.8583 31.2114 24.5917 31.1809 24.3251C30.9372 22.017 29.6269 20.0211 27.7606 18.8328C29.2994 17.0579 31.5694 15.9305 34.1061 15.9305C38.7376 15.9305 42.5083 19.6936 42.5083 24.3251H46.4923C46.4923 19.526 43.7423 15.3516 39.7355 13.3024H39.7507ZM13.3786 11.8932C11.4818 11.8932 9.92782 10.3468 9.92782 8.44239C9.92782 6.53799 11.4818 4.99162 13.3786 4.99162C15.2754 4.99162 16.837 6.53799 16.837 8.44239C16.837 10.3468 15.283 11.8932 13.3786 11.8932ZM23.8071 28.5757C21.9027 28.5757 20.3487 27.0293 20.3487 25.1249C20.3487 24.0661 20.8286 23.1215 21.5751 22.4816C21.6894 22.3902 21.8037 22.3064 21.9255 22.2302C22.4664 21.8722 23.1139 21.6665 23.8071 21.6665C23.8985 21.6665 23.9899 21.6665 24.0737 21.6818C24.6146 21.7199 25.1249 21.8875 25.5667 22.1617C25.7039 22.2302 25.8257 22.3217 25.9476 22.4207C26.5494 22.893 26.9836 23.5557 27.1664 24.3251C27.2274 24.5841 27.2579 24.8507 27.2579 25.1249C27.2579 27.0293 25.7115 28.5757 23.8071 28.5757ZM34.1213 11.8932C32.2169 11.8932 30.6705 10.3468 30.6705 8.44239C30.6705 6.53799 32.2169 4.99162 34.1213 4.99162C36.0257 4.99162 37.5797 6.53799 37.5797 8.44239C37.5797 10.3468 36.0257 11.8932 34.1213 11.8932Z" fill="#FE3A20" stroke="white"/>
</svg>
