<svg width="40" height="40" viewBox="0 0 40 40" fill="none" xmlns="http://www.w3.org/2000/svg">
<g clip-path="url(#clip0_390_156)">
<path d="M3.12968 36.87V0.152832H0V39.9997H39.9134V36.87H3.12968Z" fill="#FE3B1F"/>
<path d="M39.1145 5.06055L35.9849 7.43777V32.948H39.1145V5.06055Z" fill="#FE3B1F"/>
<path d="M31.117 13.1575L27.9873 15.5347V32.9477H31.117V13.1575Z" fill="#FE3B1F"/>
<path d="M19.9902 32.9479H23.1199V21.0618L19.9902 23.439V32.9479Z" fill="#FE3B1F"/>
<path d="M15.116 32.9479V24.6709L11.9863 27.0415V32.9479H15.116Z" fill="#FE3B1F"/>
<path d="M15.602 17.8856C10.6678 17.8856 6.65912 13.8769 6.65912 8.94266C6.65912 4.00841 10.6678 -0.000244141 15.602 -0.000244141C20.5363 -0.000244141 24.5449 4.00841 24.5449 8.94266C24.5449 13.8769 20.5363 17.8856 15.602 17.8856ZM15.602 2.5035C12.0528 2.5035 9.16287 5.39346 9.16287 8.94266C9.16287 12.4918 12.0528 15.3818 15.602 15.3818C19.1512 15.3818 22.0412 12.4918 22.0412 8.94266C22.0412 5.39346 19.1512 2.5035 15.602 2.5035Z" fill="#FE3B1F"/>
<path d="M12.0928 8.84939H15.0959C14.8695 9.54857 14.3168 9.90149 13.4445 9.90149H12.772L14.9694 13.4707H17.2734L15.7352 10.8737C15.7352 10.8737 16.0482 10.8271 16.4211 10.4808C16.8672 10.0613 17.1469 9.51527 17.2734 8.84273L18.3388 8.81609L19.0114 7.31784L17.2468 7.34447C17.1735 6.98489 17.0337 6.65195 16.8273 6.35896H18.432L19.1046 4.87402H12.7653L12.0994 6.37227H13.4712C13.864 6.37227 14.197 6.44552 14.4633 6.60534C14.7364 6.76515 14.9361 7.05148 15.056 7.35113H12.7653L12.0928 8.84939Z" fill="#FE3B1F"/>
</g>
<defs>
<clipPath id="clip0_390_156">
<rect width="39.9134" height="40" fill="white" transform="matrix(-1 0 0 1 39.9136 -0.000244141)"/>
</clipPath>
</defs>
</svg>
