<svg width="17" height="17" viewBox="0 0 17 17" fill="none" xmlns="http://www.w3.org/2000/svg">
<path d="M8.85671 4.76136C6.59727 4.76136 4.79678 6.59715 4.79678 8.82128C4.79678 11.0807 6.59727 12.8812 8.85671 12.8812C11.0808 12.8812 12.9166 11.0807 12.9166 8.82128C12.9166 6.59715 11.0808 4.76136 8.85671 4.76136ZM8.85671 11.4691C7.40926 11.4691 6.20893 10.304 6.20893 8.82128C6.20893 7.37383 7.37395 6.20881 8.85671 6.20881C10.3042 6.20881 11.4692 7.37383 11.4692 8.82128C11.4692 10.304 10.3042 11.4691 8.85671 11.4691ZM14.011 4.62014C14.011 4.09059 13.5874 3.66694 13.0578 3.66694C12.5283 3.66694 12.1047 4.09059 12.1047 4.62014C12.1047 5.1497 12.5283 5.57334 13.0578 5.57334C13.5874 5.57334 14.011 5.1497 14.011 4.62014ZM16.6941 5.57334C16.6235 4.30241 16.3411 3.17269 15.4232 2.2548C14.5053 1.3369 13.3756 1.05447 12.1047 0.983864C10.7984 0.913256 6.8797 0.913256 5.57347 0.983864C4.30253 1.05447 3.20812 1.3369 2.25492 2.2548C1.33702 3.17269 1.05459 4.30241 0.983986 5.57334C0.913378 6.87958 0.913378 10.7983 0.983986 12.1045C1.05459 13.3755 1.33702 14.4699 2.25492 15.4231C3.20812 16.341 4.30253 16.6234 5.57347 16.694C6.8797 16.7646 10.7984 16.7646 12.1047 16.694C13.3756 16.6234 14.5053 16.341 15.4232 15.4231C16.3411 14.4699 16.6235 13.3755 16.6941 12.1045C16.7647 10.7983 16.7647 6.87958 16.6941 5.57334ZM14.9996 13.4814C14.7524 14.1874 14.1876 14.717 13.5168 14.9994C12.4577 15.4231 9.98643 15.3172 8.85671 15.3172C7.69169 15.3172 5.22043 15.4231 4.19662 14.9994C3.49055 14.717 2.96099 14.1874 2.67856 13.4814C2.25492 12.4576 2.36083 9.98631 2.36083 8.82128C2.36083 7.69157 2.25492 5.22031 2.67856 4.1612C2.96099 3.49043 3.49055 2.96087 4.19662 2.67844C5.22043 2.2548 7.69169 2.36071 8.85671 2.36071C9.98643 2.36071 12.4577 2.2548 13.5168 2.67844C14.1876 2.92557 14.7171 3.49043 14.9996 4.1612C15.4232 5.22031 15.3173 7.69157 15.3173 8.82128C15.3173 9.98631 15.4232 12.4576 14.9996 13.4814Z" fill="white"/>
</svg>
