<svg width="17" height="17" viewBox="0 0 17 17" fill="none" xmlns="http://www.w3.org/2000/svg">
<path d="M4.4693 16.747V6.16754H1.17871V16.747H4.4693ZM2.80631 4.75224C3.86779 4.75224 4.71698 3.86767 4.71698 2.80619C4.71698 1.78009 3.86779 0.930908 2.80631 0.930908C1.78021 0.930908 0.93103 1.78009 0.93103 2.80619C0.93103 3.86767 1.78021 4.75224 2.80631 4.75224ZM16.7471 16.747H16.7825V10.9442C16.7825 8.11359 16.1456 5.91987 12.8196 5.91987C11.2274 5.91987 10.1659 6.80443 9.70593 7.61823H9.67055V6.16754H6.52149V16.747H9.81208V11.5103C9.81208 10.1304 10.0598 8.82124 11.7581 8.82124C13.4565 8.82124 13.4919 10.3781 13.4919 11.6165V16.747H16.7471Z" fill="white"/>
</svg>
