<svg width="178" height="40" viewBox="0 0 178 40" fill="none" xmlns="http://www.w3.org/2000/svg">
<path d="M14.1096 19.993C14.1096 15.7658 17.5422 12.3299 21.7793 12.3299C22.7771 12.3299 23.7467 12.5233 24.6216 12.8785L24.9624 12.3299L31.2231 2.24371L32.3439 0.450149L32.6179 0H15.7609L15.4868 0.450149L14.735 1.65289L8.98012 10.9056L0 25.3315H16.2563C14.9317 23.9353 14.1096 22.0608 14.1096 19.993Z" fill="#FE3A20"/>
<path d="M27.2987 14.6896C28.6232 16.0646 29.4418 17.9391 29.4418 20.0069C29.4418 24.2341 25.9987 27.6665 21.7757 27.6665C20.7603 27.6665 19.7941 27.4696 18.9158 27.1214L10.9265 39.9999H27.794C27.794 39.9999 42.9787 15.5793 43.5479 14.686H27.2987V14.6896Z" fill="#FE3A20"/>
<path d="M56.5228 14.3624C61.5539 14.3624 64.4981 16.469 64.8003 19.9154V20.45H60.9461C60.8196 18.2907 59.0559 17.5381 56.5404 17.5381C54.0248 17.5381 52.6687 18.2871 52.6687 19.7185C52.6687 21.1498 53.8105 21.6105 55.3985 21.8602L58.8592 22.3948C62.5341 22.968 65.0497 24.4837 65.0497 27.8423C65.0497 31.2008 62.3901 33.6274 57.0393 33.6274C51.6884 33.6274 48.5826 31.1973 48.3156 27.9302V27.3956H52.24C52.4192 29.5549 54.4007 30.4482 57.0393 30.4482C59.6778 30.4482 61.0199 29.5198 61.0199 28.0744C61.0199 26.629 59.8605 26.0557 57.9141 25.7533L54.4534 25.2187C50.9928 24.6842 48.6564 23.1474 48.6564 19.8064C48.6564 16.4654 51.5128 14.3589 56.5263 14.3589L56.5228 14.3624Z" fill="#FE3A20"/>
<path d="M80.5154 33.223V31.1868H80.2308C78.98 32.903 76.9282 33.6169 74.4513 33.6169C70.1158 33.6169 67.4562 31.3837 67.4562 26.8295V14.7739H71.6863V26.4708C71.6863 29.024 73.0249 30.2232 75.5229 30.2232C78.2528 30.2232 80.3748 28.6688 80.3748 25.0957V14.7739H84.6049V33.223H80.5189H80.5154Z" fill="#FE3A20"/>
<path d="M92.3235 14.774V16.8102H92.6081C93.8764 15.0765 95.9282 14.3801 98.4262 14.3801C102.779 14.3801 105.456 16.6133 105.456 21.15V33.2231H101.226V21.5262C101.226 18.9731 99.8526 17.7773 97.3546 17.7773C94.6248 17.7773 92.4676 19.3318 92.4676 22.9048V33.2266H88.2375V14.7775H92.3235V14.774Z" fill="#FE3A20"/>
<path d="M116.102 14.3624C121.133 14.3624 124.078 16.469 124.38 19.9154V20.45H120.526C120.399 18.2907 118.635 17.5381 116.12 17.5381C113.604 17.5381 112.248 18.2871 112.248 19.7185C112.248 21.1498 113.39 21.6105 114.978 21.8602L118.439 22.3948C122.114 22.968 124.629 24.4837 124.629 27.8423C124.629 31.2008 121.969 33.6274 116.619 33.6274C111.268 33.6274 108.162 31.1973 107.895 27.9302V27.3956H111.819C111.999 29.5549 113.98 30.4482 116.619 30.4482C119.257 30.4482 120.599 29.5198 120.599 28.0744C120.599 26.629 119.44 26.0557 117.493 25.7533L114.033 25.2187C110.572 24.6842 108.236 23.1474 108.236 19.8064C108.236 16.4654 111.092 14.3589 116.106 14.3589L116.102 14.3624Z" fill="#FE3A20"/>
<path d="M140.098 33.223V31.1868H139.813C138.563 32.903 136.511 33.6169 134.034 33.6169C129.699 33.6169 127.039 31.3837 127.039 26.8295V14.7739H131.269V26.4708C131.269 29.024 132.608 30.2232 135.106 30.2232C137.835 30.2232 139.958 28.6688 139.958 25.0957V14.7739H144.188V33.223H140.102H140.098Z" fill="#FE3A20"/>
<path d="M151.871 14.774V16.8982H152.156C152.816 15.5583 154.028 14.7002 156.544 14.7002H159.112V18.1994H156.562C153.421 18.1994 152.047 19.8593 152.047 23.3445V33.2196H147.817V14.7705H151.868L151.871 14.774Z" fill="#FE3A20"/>
<path d="M169.129 14.345C174.677 14.345 177.892 17.7035 177.892 23.2565V25.1486H163.958C164.028 28.2398 165.939 30.3991 169.115 30.3991C172.291 30.3991 173.521 28.7568 173.809 27.3641H177.519V27.8987C177.02 30.3112 174.807 33.6486 169.168 33.6486C163.529 33.6486 159.907 30.3429 159.907 23.988C159.907 17.6332 163.547 14.345 169.133 14.345H169.129ZM173.911 22.0081C173.876 19.49 172.27 17.5593 169.077 17.5593C165.883 17.5593 164.242 19.5428 164.01 22.0081H173.914H173.911Z" fill="#FE3A20"/>
</svg>
