<svg width="42" height="40" viewBox="0 0 42 40" fill="none" xmlns="http://www.w3.org/2000/svg">
<path d="M29.2379 3.1145H22.9033V6.24218H26.7898L29.2379 3.1145Z" fill="#FE3A20"/>
<path d="M30.0759 36.8723H3.12768V6.24216H10.3266V3.12768H22.9033V0H10.3266V3.11448H0V40H33.2102V21.9664L30.0759 25.9056V36.8723Z" fill="#FE3A20"/>
<path d="M23.3587 10.6302H7.96444L6.31482 13.7579H20.9107L23.3587 10.6302Z" fill="#FE3A20"/>
<path d="M17.5322 18.126H7.96444L6.31482 21.2537H16.9384L17.5322 18.126Z" fill="#FE3A20"/>
<path d="M15.5197 28.7562L16.1136 25.6219H7.96444L6.31482 28.7562H15.5197Z" fill="#FE3A20"/>
<path d="M34.1537 1.25366L32.6955 3.11443L30.0759 6.46646L24.9752 12.9858L24.3682 13.7578L20.9502 18.126L20.099 19.2147L19.7163 21.2537L18.8848 25.6219L18.324 28.5912L24.9752 25.9584L27.2715 25.0478L30.0759 21.5242L33.2102 17.5849L41.5836 7.06693L34.1537 1.25366ZM30.0759 16.5028L25.3448 22.448L22.4546 23.5895L22.8967 21.2537L23.0287 20.5476L24.9225 18.126L30.0759 11.5407L33.2102 7.53542L34.6882 5.64825L37.1692 7.58821L33.2102 12.5635L30.0759 16.5028Z" fill="#FE3A20"/>
</svg>
