<svg width="375" height="696" viewBox="0 0 375 696" fill="none" xmlns="http://www.w3.org/2000/svg">
<path d="M187.118 417.051H155.188L214.082 314.69H246.022L187.118 417.051Z" fill="#FE3A20" fill-opacity="0.04"/>
<path d="M268.78 530.644H236.85L295.744 428.283H327.684L268.78 530.644Z" fill="#FE3A20" fill-opacity="0.04"/>
<path d="M-40.7751 695.751H-89L-0.0573807 541.185H48.1576L-40.7751 695.751Z" fill="#FE3A20" fill-opacity="0.04"/>
<path d="M134.795 291.44H109.535L154.036 219.344H179.296L134.795 291.44Z" fill="#FE3A20" fill-opacity="0.04"/>
<path d="M345.016 357.527H284.979L357.311 235.462H417.348L345.016 357.527Z" fill="#FE3A20" fill-opacity="0.04"/>
<path d="M53.3388 479.02H-20.4221L61.4764 340.818H135.237L53.3388 479.02Z" fill="#FE3A20" fill-opacity="0.04"/>
<path d="M131.168 601.981H57.4075L139.306 463.779H213.067L131.168 601.981Z" fill="#FE3A20" fill-opacity="0.04"/>
<path d="M272.988 231.571H223.985L278.012 140.027H327.025L272.988 231.571Z" fill="#FE3A20" fill-opacity="0.04"/>
<path d="M43.6167 296.189H-13.4255L58.6605 174.725H115.713L43.6167 296.189Z" fill="#FE3A20" fill-opacity="0.04"/>
<path d="M244.476 118.521H208.192L246.781 53.3999H283.066L244.476 118.521Z" fill="#FE3A20" fill-opacity="0.04"/>
</svg>
