<svg width="60" height="60" viewBox="0 0 60 60" fill="none" xmlns="http://www.w3.org/2000/svg">
<circle cx="30" cy="30.001" r="30" transform="rotate(-180 30 30.001)" fill="#FFEBE9"/>
<path fill-rule="evenodd" clip-rule="evenodd" d="M44 23.4432L44 19.001C37.1222 19.001 31.5711 24.6419 31.5711 31.5875L31.5711 37.8632C31.5711 39.5908 32.9675 41.001 34.6783 41.001L40.8928 41.001C42.6036 41.001 44 39.5908 44 37.8632L44 31.5875C44 29.8599 42.6036 28.4497 40.8928 28.4497L36.7381 28.4497C38.0648 25.6646 40.788 23.6548 43.9999 23.4433L44 23.4432ZM16 31.5875L16 37.8631C16 39.5907 17.3964 41.0009 19.1072 41.0009L25.3217 41.0009C27.0325 41.0009 28.4289 39.5908 28.4289 37.8631L28.4292 31.5875C28.4292 29.8598 27.0328 28.4496 25.3219 28.4496L21.2021 28.4496C22.5289 25.6645 25.2169 23.6899 28.429 23.4432L28.429 19.001C21.5862 19.001 16.0001 24.6419 16.0001 31.5875L16 31.5875Z" fill="#FE3A20"/>
</svg>
