<svg width="40" height="40" viewBox="0 0 40 40" fill="none" xmlns="http://www.w3.org/2000/svg">
<path d="M30.4575 17.2225V6.60155L24.3922 0.000244141H0V39.6277H25.1176C26.0458 39.8695 27.0196 40.0002 28.0196 40.0002C34.3726 40.0002 39.5359 34.8303 39.5359 28.4839C39.5359 22.9676 35.6405 18.3401 30.4575 17.2225ZM3.09804 36.5297V3.09828H23.0327L27.3595 7.80417V16.9806C21.3137 17.3205 16.4967 22.3532 16.4967 28.4839C16.4967 31.6081 17.7516 34.4512 19.7909 36.5297H3.09804ZM30.4575 36.5427C29.6863 36.778 28.8693 36.9022 28.0196 36.9022C27.1699 36.9022 26.3268 36.7715 25.5425 36.5297C22.1046 35.4708 19.6013 32.2617 19.6013 28.4839C19.6013 24.0591 23.0196 20.4251 27.3595 20.0917C27.5752 20.0656 27.7974 20.0591 28.0196 20.0591C28.8693 20.0591 29.6863 20.1833 30.4575 20.4185C33.915 21.4708 36.4379 24.6865 36.4379 28.4839C36.4379 32.2813 33.915 35.497 30.4575 36.5427Z" fill="#FE3B1F"/>
<path d="M26.8824 30.5362L25.2157 27.3793H21.8628L25.1504 33.6146H25.2419H28.5033H28.5491L33.7321 24.0525H30.3334L26.8824 30.5362Z" fill="#FE3B1F"/>
<path d="M22.3139 9.896H7.77139L6.50342 12.8633H21.0459L22.3139 9.896Z" fill="#FE3B1F"/>
<path d="M6.50342 20.7058H14.51L15.7779 17.7385H7.77139L6.50342 20.7058Z" fill="#FE3B1F"/>
</svg>
