<svg width="1439" height="3522" viewBox="0 0 1439 3522" fill="none" xmlns="http://www.w3.org/2000/svg">
<path d="M721.418 1088.6H637.994L791.869 821.163H875.318L721.418 1088.6Z" fill="white" fill-opacity="0.02"/>
<path d="M934.779 1385.39H851.355L1005.23 1117.95H1088.68L934.779 1385.39Z" fill="white" fill-opacity="0.02"/>
<path d="M125.998 1816.77H0L232.382 1412.93H358.354L125.998 1816.77Z" fill="white" fill-opacity="0.02"/>
<path d="M1308.63 223.555H1225.18L1364.02 0.23291H1447.45L1308.63 223.555Z" fill="white" fill-opacity="0.02"/>
<path d="M584.713 760.417H518.715L634.983 572.05H700.981L584.713 760.417Z" fill="white" fill-opacity="0.02"/>
<path d="M1133.96 933.081H977.101L1166.08 614.161H1322.95L1133.96 933.081Z" fill="white" fill-opacity="0.02"/>
<path d="M371.892 1250.51H179.176L393.154 889.427H585.87L371.892 1250.51Z" fill="white" fill-opacity="0.02"/>
<path d="M575.24 1571.77H382.523L596.501 1210.69H789.217L575.24 1571.77Z" fill="white" fill-opacity="0.02"/>
<path d="M945.774 603.994H817.743L958.902 364.817H1086.96L945.774 603.994Z" fill="white" fill-opacity="0.02"/>
<path d="M346.491 772.824H197.455L385.796 455.473H534.857L346.491 772.824Z" fill="white" fill-opacity="0.02"/>
<path d="M871.279 308.626H776.478L877.302 138.483H972.103L871.279 308.626Z" fill="white" fill-opacity="0.02"/>
<path d="M721.418 2793.37H637.994L791.869 2525.93H875.318L721.418 2793.37Z" fill="white" fill-opacity="0.02"/>
<path d="M934.779 3090.16H851.355L1005.23 2822.72H1088.68L934.779 3090.16Z" fill="white" fill-opacity="0.02"/>
<path d="M125.998 3521.53H0L232.382 3117.7H358.354L125.998 3521.53Z" fill="white" fill-opacity="0.02"/>
<path d="M1308.63 1928.32H1225.18L1364.02 1705H1447.45L1308.63 1928.32Z" fill="white" fill-opacity="0.02"/>
<path d="M584.713 2465.18H518.715L634.983 2276.82H700.981L584.713 2465.18Z" fill="white" fill-opacity="0.02"/>
<path d="M1133.96 2637.85H977.101L1166.08 2318.93H1322.95L1133.96 2637.85Z" fill="white" fill-opacity="0.02"/>
<path d="M371.892 2955.28H179.176L393.154 2594.19H585.87L371.892 2955.28Z" fill="white" fill-opacity="0.02"/>
<path d="M575.24 3276.54H382.523L596.501 2915.46H789.217L575.24 3276.54Z" fill="white" fill-opacity="0.02"/>
<path d="M945.774 2308.76H817.743L958.902 2069.58H1086.96L945.774 2308.76Z" fill="white" fill-opacity="0.02"/>
<path d="M346.491 2477.59H197.455L385.796 2160.24H534.857L346.491 2477.59Z" fill="white" fill-opacity="0.02"/>
<path d="M871.279 2013.39H776.478L877.302 1843.25H972.103L871.279 2013.39Z" fill="white" fill-opacity="0.02"/>
</svg>
