<svg width="20" height="17" viewBox="0 0 20 17" fill="none" xmlns="http://www.w3.org/2000/svg">
<path d="M17.6309 4.85634C18.3931 4.28467 19.0791 3.59868 19.6126 2.79835C18.9267 3.10323 18.1263 3.3319 17.326 3.40812C18.1644 2.91268 18.7742 2.15046 19.0791 1.19769C18.3169 1.65502 17.4403 1.99802 16.5638 2.18857C15.8016 1.38824 14.7726 0.930908 13.6292 0.930908C11.4188 0.930908 9.62757 2.72212 9.62757 4.93256C9.62757 5.23745 9.66568 5.54234 9.74191 5.84722C6.42625 5.65667 3.45359 4.05601 1.47182 1.65502C1.12882 2.22668 0.93827 2.91268 0.93827 3.6749C0.93827 5.04689 1.62427 6.26645 2.72949 6.99055C2.0816 6.95244 1.43371 6.8 0.900159 6.49511V6.53322C0.900159 8.47688 2.27215 10.0775 4.10148 10.4587C3.79659 10.5349 3.41548 10.6111 3.07248 10.6111C2.80571 10.6111 2.57704 10.573 2.31027 10.5349C2.80571 12.1355 4.29204 13.2789 6.04514 13.317C4.67315 14.3841 2.95815 15.032 1.09071 15.032C0.747715 15.032 0.442827 14.9939 0.137939 14.9557C1.89104 16.0991 3.98715 16.747 6.27381 16.747C13.6292 16.747 17.6309 10.6873 17.6309 5.38989C17.6309 5.19934 17.6309 5.04689 17.6309 4.85634Z" fill="white"/>
</svg>
